<svg width="81" height="13.5" xmlns="http://www.w3.org/2000/svg">
 <desc>ADXL335_Accelerometer_Breakout__93edc3da__pcb__7c643ccd2aa6499a5547cccb9235f7d1.svg</desc>

 <metadata id="metadata4369">image/svg+xml</metadata>
 <g>
  <title>background</title>
  <rect fill="none" id="canvas_background" height="15.5" width="83" y="-1" x="-1"/>
 </g>
 <g>
  <title>Layer 1</title>
  <rect stroke="#ffffff" fill="none" stroke-width="0.27" stroke-miterlimit="4" height="12.599952" id="rect8769" y="0.450001" width="80.055811" x="0.381633"/>
  <g id="svg_1">
   <g display="inline" id="layer1"/>
  </g>
  <g id="copper0">
   <path fill="none" stroke="#f6ca34" stroke-width="1.8" stroke-linecap="round" stroke-linejoin="round" stroke-miterlimit="4" stroke-dashoffset="0" id="connector1pad" d="m11.25,4.5a2.25,2.25 0 0 1 -4.5,0a2.25,2.25 0 1 1 4.5,0z"/>
   <path fill="none" stroke="#f6ca34" stroke-width="1.8" stroke-linecap="round" stroke-linejoin="round" stroke-miterlimit="4" stroke-dashoffset="0" id="connector2pad" d="m20.25,4.5a2.25,2.25 0 0 1 -4.5,0a2.25,2.25 0 1 1 4.5,0z"/>
   <path fill="none" stroke="#f6ca34" stroke-width="1.8" stroke-linecap="round" stroke-linejoin="round" stroke-miterlimit="4" stroke-dashoffset="0" id="connector3pad" d="m29.25,4.5a2.25,2.25 0 0 1 -4.5,0a2.25,2.25 0 1 1 4.5,0z"/>
   <path fill="none" stroke="#f6ca34" stroke-width="1.8" stroke-linecap="round" stroke-linejoin="round" stroke-miterlimit="4" stroke-dashoffset="0" id="connector4pad" d="m38.25,4.5a2.25,2.25 0 0 1 -4.5,0a2.25,2.25 0 1 1 4.5,0z"/>
   <path fill="none" stroke="#f6ca34" stroke-width="1.8" stroke-linecap="round" stroke-linejoin="round" stroke-miterlimit="4" stroke-dashoffset="0" id="connector5pad" d="m47.25,4.5a2.25,2.25 0 0 1 -4.5,0a2.25,2.25 0 1 1 4.5,0z"/>
   <path fill="none" stroke="#f6ca34" stroke-width="1.8" stroke-linecap="round" stroke-linejoin="round" stroke-miterlimit="4" stroke-dashoffset="0" id="connector6pad" d="m56.25,4.5a2.25,2.25 0 0 1 -4.5,0a2.25,2.25 0 1 1 4.5,0z"/>
   <path fill="none" stroke="#f6ca34" stroke-width="1.8" stroke-linecap="round" stroke-linejoin="round" stroke-miterlimit="4" stroke-dashoffset="0" id="connector7pad" d="m65.25,4.5a2.25,2.25 0 0 1 -4.5,0a2.25,2.25 0 1 1 4.5,0z"/>
  </g>
  <path fill="none" stroke="#f6ca34" stroke-width="1.8" stroke-linecap="round" stroke-linejoin="round" stroke-miterlimit="4" stroke-dashoffset="0" id="connector1pad" d="m11.25,4.5a2.25,2.25 0 0 1 -4.5,0a2.25,2.25 0 1 1 4.5,0z"/>
  <path fill="none" stroke="#f6ca34" stroke-width="1.8" stroke-linecap="round" stroke-linejoin="round" stroke-miterlimit="4" stroke-dashoffset="0" id="connector2pad" d="m20.25,4.5a2.25,2.25 0 0 1 -4.5,0a2.25,2.25 0 1 1 4.5,0z"/>
  <path fill="none" stroke="#f6ca34" stroke-width="1.8" stroke-linecap="round" stroke-linejoin="round" stroke-miterlimit="4" stroke-dashoffset="0" id="connector3pad" d="m29.25,4.5a2.25,2.25 0 0 1 -4.5,0a2.25,2.25 0 1 1 4.5,0z"/>
  <path fill="none" stroke="#f6ca34" stroke-width="1.8" stroke-linecap="round" stroke-linejoin="round" stroke-miterlimit="4" stroke-dashoffset="0" id="connector4pad" d="m38.25,4.5a2.25,2.25 0 0 1 -4.5,0a2.25,2.25 0 1 1 4.5,0z"/>
  <path fill="none" stroke="#f6ca34" stroke-width="1.8" stroke-linecap="round" stroke-linejoin="round" stroke-miterlimit="4" stroke-dashoffset="0" id="connector5pad" d="m47.25,4.5a2.25,2.25 0 0 1 -4.5,0a2.25,2.25 0 1 1 4.5,0z"/>
  <path fill="none" stroke="#f6ca34" stroke-width="1.8" stroke-linecap="round" stroke-linejoin="round" stroke-miterlimit="4" stroke-dashoffset="0" id="connector6pad" d="m56.25,4.5a2.25,2.25 0 0 1 -4.5,0a2.25,2.25 0 1 1 4.5,0z"/>
  <path fill="none" stroke="#f6ca34" stroke-width="1.8" stroke-linecap="round" stroke-linejoin="round" stroke-miterlimit="4" stroke-dashoffset="0" id="connector7pad" d="m74.069402,4.5a2.25,2.25 0 0 1 -4.5,0a2.25,2.25 0 1 1 4.5,0z"/>
  <g id="svg_2">
   <g font-size="8px" font-style="normal" font-weight="normal" text-anchor="middle" fill="#000000" font-family="OCRA" id="text8757">
    <g font-size="4px" fill="#ffffff" id="tspan8759">
     <text font-size="3.5px" id="tspan12480" y="11.149567" x="9">Vin</text>
    </g>
   </g>
  </g>
  <g id="svg_3">
   <g font-size="8px" font-style="normal" font-weight="normal" text-anchor="middle" fill="#000000" font-family="OCRA" id="text8761">
    <g font-size="4px" fill="#ffffff" id="tspan8763">
     <text font-size="3.5px" id="tspan12478" y="11.199566" x="18">3Vo</text>
    </g>
   </g>
  </g>
  <g id="svg_4">
   <g font-size="8px" font-style="normal" font-weight="normal" text-anchor="middle" fill="#000000" font-family="OCRA" id="text8765">
    <g font-size="4px" fill="#ffffff" id="tspan8767">
     <text font-size="3.5px" id="tspan12476" y="11.149767" x="27">GND</text>
    </g>
   </g>
  </g>
  <g id="svg_5">
   <g font-size="8px" font-style="normal" font-weight="normal" text-anchor="middle" fill="#000000" font-family="OCRA" id="g6732">
    <g font-size="4px" fill="#ffffff" id="text6734">
     <text font-size="3.5px" id="tspan12474" y="11.149567" x="36">SCL</text>
    </g>
   </g>
  </g>
  <g id="svg_6">
   <g font-size="8px" font-style="normal" font-weight="normal" text-anchor="middle" fill="#000000" font-family="OCRA" id="g6736">
    <g font-size="4px" fill="#ffffff" id="text6738">
     <text font-size="3.5px" id="tspan12472" y="11.199566" x="45">SDA</text>
    </g>
   </g>
  </g>
  <g id="svg_7">
   <g font-size="8px" font-style="normal" font-weight="normal" text-anchor="middle" fill="#000000" font-family="OCRA" id="g6740">
    <g font-size="4px" fill="#ffffff" id="text6742">
     <text font-size="3.5px" id="tspan12482" y="11.149767" x="54">SDO</text>
    </g>
   </g>
  </g>
  <g font-size="4px" fill="#ffffff" id="text6748">
   <text font-size="3.5px" id="tspan12484" y="11.013032" x="59.376525">CS</text>
  </g>
  <path fill="none" stroke="#f6ca34" stroke-width="1.8" stroke-linecap="round" stroke-linejoin="round" stroke-miterlimit="4" stroke-dashoffset="0" id="connecter8pad" d="m65.25,4.5a2.25,2.25 0 0 1 -4.5,0a2.25,2.25 0 1 1 4.5,0z"/>
  <g font-size="4px" fill="#ffffff" id="svg_12">
   <text font-size="3.5px" id="svg_11" y="10.944665" x="68.332663">INT</text>
  </g>
 </g>
</svg>
